<?xml version="1.0" encoding="UTF-8"?>
<svg version="1.1" viewBox="0 0 1024 1024" xmlns="http://www.w3.org/2000/svg">
<path transform="translate(108,408)" d="m0 0h134l2 3-1 5-2 2-130 1-2 3v107l3 3h184l3-1 1-2 1-43 4-4 5 2 2 2v58l-3 7-5 5-4 2h-191l-7-4-4-7v-129l4-6z" fill="#9F9C9C"/>
<path transform="translate(354,438)" d="m0 0h45l16 2 8 3 6 5 5 9 1 6v10l-3 9-7 8-3 2 8 4 6 5 5 10v17l-4 9-4 5-10 6-11 3h-58zm23 20v27h21l9-3 4-4 2-5-1-8-4-5-4-2zm0 45v29h29l8-4 3-4 1-3v-8l-3-6-5-3-4-1z" fill="#DE5308"/>
<path transform="translate(280,402)" d="m0 0h12l5 2-1 4-15 15-3 4 2 13 1 5 14 3 5-1 14-14h2v-2l5-3 3 7-1 12-4 10-7 9-9 6-8 3-5 1h-14l-7 4-15 15-7 8-20 20-5 3h-11l-6-4-3-4-1-3v-8l5-8 42-42 1-2v-20l4-13 7-9 7-6 9-4z" fill="#DE5308"/>
<path transform="translate(696,438)" d="m0 0h42l14 2 11 4 9 7 6 10 2 9v10l-3 12-5 8-9 8-11 4-5 1h-28v38h-23zm23 21v35h23l8-3 4-5 2-5v-9l-3-7-4-4-6-2z" fill="#A19E9E"/>
<path transform="translate(447,469)" d="m0 0h24l11 30 10 28 4-9 17-47 1-2h22l-3 10-14 37-17 42-8 15-9 9-10 4h-16l-5-2 1-11 1-5h14l6-4 5-8-1-6-14-34-19-46z" fill="#A3A0A0"/>
<path transform="translate(817,467)" d="m0 0h14l13 4 7 5 6 9 1 3v63h-19l-1-2v-7l-10 8-8 3h-17l-10-5-6-8-2-8 1-10 3-6 9-8 12-4 18-2h10l-2-10-1-4-5-2-3-1h-10l-8 3-5 6-5-1-10-4 2-6 6-8 8-5zm10 47-11 2-7 4-3 6 1 6 4 4 2 1h9l8-3 5-4 3-7v-9z" fill="#A5A2A2"/>
<path transform="translate(639,467)" d="m0 0h8l11 3 9 6 6 7 5 11 2 12-1 9h-56l3 10 4 6 8 4h12l9-3 5-4 5 2 9 6-2 5-9 7-12 4-6 1h-11l-13-3-10-6-7-8-4-8-2-9v-16l3-11 4-8 6-7 11-7 6-2zm-2 16-7 4-5 6-2 10h37l-1-10-4-6-7-4z" fill="#A3A0A0"/>
<path transform="translate(571,447)" d="m0 0h2v22h21v17h-21l1 42 2 5 4 2h15v14l-2 2-8 2h-13l-11-4-7-8-2-5v-50h-12v-17h12v-20l4-1z" fill="#A5A2A2"/>
<path transform="translate(956,467)" d="m0 0 8 1v19l-16 3-7 4-4 8-1 3-1 46h-21v-82h20l2 12 7-8 5-4z" fill="#4A9D2D"/>
<path transform="translate(185,566)" d="m0 0h39l4 13v4l23 1 3 4-2 6h-95l-2-2v-5l3-3 22-1 4-16z" fill="#9F9C9C"/>
<path transform="translate(877,469)" d="m0 0h20v82h-20z" fill="#A3A0A0"/>
<path transform="translate(160,449)" d="m0 0h5l2 2v5l-7 7-7 8-5 6 19 19 1 4-5 5-7-4-15-15v-2l-4-2-2-3v-5l10-10 7-8z" fill="#4A9C2E"/>
<path transform="translate(185,449)" d="m0 0h6l24 24 1 4-4 6-20 20-7 1-2-2v-5l16-17 3-3-2-4-17-17v-5z" fill="#469C28"/>
<path transform="translate(886,436)" d="m0 0 8 2 4 5 1 2v8l-3 5-5 3h-9l-6-5-2-4v-6l4-6 4-3z" fill="#DE5308"/>
</svg>
